<?xml version="1.0" standalone="no"?><svg xmlns="http://www.w3.org/2000/svg" viewBox="0 0 1440 320"><path fill="#468d5e" fill-opacity="1" d="M0,64L34.3,64C68.6,64,137,64,206,85.3C274.3,107,343,149,411,160C480,171,549,149,617,138.7C685.7,128,754,128,823,149.3C891.4,171,960,213,1029,208C1097.1,203,1166,149,1234,112C1302.9,75,1371,53,1406,42.7L1440,32L1440,320L1405.7,320C1371.4,320,1303,320,1234,320C1165.7,320,1097,320,1029,320C960,320,891,320,823,320C754.3,320,686,320,617,320C548.6,320,480,320,411,320C342.9,320,274,320,206,320C137.1,320,69,320,34,320L0,320Z"></path></svg>